<svg class="svg-icon" style="width: 1em; height: 1em;vertical-align: middle;fill: currentColor;overflow: hidden;" viewBox="0 0 1024 1024" version="1.1" xmlns="http://www.w3.org/2000/svg"><path d="M628 710.857143v120.571428q0 38.285714-22.285714 38.285715-13.142857 0-25.714286-12.571429v-172q12.571429-12.571429 25.714286-12.571428 22.285714 0 22.285714 38.285714z m193.142857 0.571428v26.285715h-51.428571v-26.285715q0-38.857143 25.714285-38.857142t25.714286 38.857142z m-552-124.571428h61.142857v-53.714286H152v53.714286h60v325.142857h57.142857v-325.142857z m164.571429 325.142857h50.857143v-282.285714h-50.857143v216q-17.142857 24-32.571429 24-10.285714 0-12-12-0.571429-1.714286-0.571428-20v-208h-50.857143v223.428571q0 28 4.571428 41.714286 6.857143 21.142857 33.142857 21.142857 27.428571 0 58.285715-34.857143v30.857143z m245.142857-84.571429v-112.571428q0-41.714286-5.142857-56.571429-9.714286-32-40.571429-32-28.571429 0-53.142857 30.857143V533.142857h-50.857143v378.857143h50.857143v-27.428571q25.714286 31.428571 53.142857 31.428571 30.857143 0 40.571429-31.428571 5.142857-15.428571 5.142857-57.142858z m193.142857-5.714285v-7.428572h-52q0 29.142857-1.142857 34.857143-4 20.571429-22.857143 20.571429-26.285714 0-26.285714-39.428572v-49.714285h102.285714v-58.857143q0-45.142857-15.428571-66.285715-22.285714-29.142857-60.571429-29.142857-38.857143 0-61.142857 29.142857-16 21.142857-16 66.285715v98.857143q0 45.142857 16.571428 66.285714 22.285714 29.142857 61.714286 29.142857 41.142857 0 61.714286-30.285714 10.285714-15.428571 12-30.857143 1.142857-5.142857 1.142857-33.142857zM524.571429 300V180q0-39.428571-24.571429-39.428571t-24.571429 39.428571v120q0 40 24.571429 40t24.571429-40z m410.857142 429.142857q0 133.714286-14.857142 200-8 33.714286-33.142858 56.571429t-58.285714 26.285714q-105.142857 12-317.142857 12t-317.142857-12q-33.142857-3.428571-58.571429-26.285714t-32.857143-56.571429q-14.857143-64-14.857142-200 0-133.714286 14.857142-200 8-33.714286 33.142858-56.571428t58.857142-26.857143q104.571429-11.428571 316.571429-11.428572t317.142857 11.428572q33.142857 4 58.571429 26.857143t32.857143 56.571428q14.857143 64 14.857142 200zM365.142857 0h58.285714L354.285714 228v154.857143H297.142857V228q-8-42.285714-34.857143-121.142857Q241.142857 48 225.142857 0h60.571429l40.571428 150.285714z m211.428572 190.285714v100q0 46.285714-16 67.428572-21.142857 29.142857-60.571429 29.142857-38.285714 0-60-29.142857-16-21.714286-16-67.428572V190.285714q0-45.714286 16-66.857143 21.714286-29.142857 60-29.142857 39.428571 0 60.571429 29.142857 16 21.142857 16 66.857143z m191.428571-92.571428v285.142857h-52v-31.428572q-30.285714 35.428571-58.857143 35.428572-26.285714 0-33.714286-21.142857-4.571429-13.714286-4.571428-42.857143V97.714286h52v209.714285q0 18.857143 0.571428 20 1.714286 12.571429 12 12.571429 15.428571 0 32.571429-24.571429V97.714286h52z"  /></svg>